# xmcd
#
# Track frame offsets: 
#        150
#        16064
#        31952
#        56854
#
# Disc length: 1066 seconds
#
# Revision: 0
# Processed by: cddbd v1.5.2PL0 Copyright (c) Steve Scherf et al.
# Submitted via: ExactAudioCopy v0.99pb5
#
DISCID=29042804
DTITLE=Citizen Cope - Every Waking Moment Bonus EP
DYEAR=2006
DGENRE=Blues
TTITLE0=Pablo Picasso (live)
TTITLE1=Bullet And A Target (live)
TTITLE2=Sideways (live)
TTITLE3=107' (featuring Alice Smith)
EXTD=
EXTT0=
EXTT1=
EXTT2=
EXTT3=
PLAYORDER=
